<?xml version="1.0" encoding="UTF-8" standalone="no"?>
<!-- This is a Stata 17.0 generated SVG file (http://www.stata.com) -->

<svg version="1.1" width="5.500in" height="4.000in" viewBox="0 0 3960 2880" xmlns="http://www.w3.org/2000/svg" xmlns:xlink="http://www.w3.org/1999/xlink">
	<desc>Stata Graph - Graph</desc>
	<rect x="0" y="0" width="3960" height="2880" style="fill:#EAF2F3;stroke:none"/>
	<rect x="0.00" y="0.00" width="3959.88" height="2880.00" style="fill:#EAF2F3"/>
	<rect x="2.88" y="2.88" width="3954.12" height="2874.24" style="fill:none;stroke:#EAF2F3;stroke-width:5.76"/>
	<rect x="390.80" y="100.86" width="3468.22" height="1852.84" style="fill:#FFFFFF"/>
	<rect x="393.68" y="103.74" width="3462.46" height="1847.08" style="fill:none;stroke:#FFFFFF;stroke-width:5.76"/>
	<line x1="390.80" y1="1953.70" x2="3859.02" y2="1953.70" style="stroke:#EAF2F3;stroke-width:8.64"/>
	<line x1="390.80" y1="1524.03" x2="3859.02" y2="1524.03" style="stroke:#EAF2F3;stroke-width:8.64"/>
	<line x1="390.80" y1="1094.36" x2="3859.02" y2="1094.36" style="stroke:#EAF2F3;stroke-width:8.64"/>
	<line x1="390.80" y1="664.68" x2="3859.02" y2="664.68" style="stroke:#EAF2F3;stroke-width:8.64"/>
	<line x1="390.80" y1="235.01" x2="3859.02" y2="235.01" style="stroke:#EAF2F3;stroke-width:8.64"/>
	<rect x="719.73" y="876.80" width="531.01" height="1076.91" style="fill:#FF7F00;fill-opacity:0.40"/>
	<rect x="724.05" y="881.12" width="522.37" height="1068.27" style="fill:none;stroke:#D7D29E;stroke-width:8.64"/>
	<rect x="1250.74" y="446.01" width="531.14" height="1507.69" style="fill:#FF7F00;fill-opacity:0.40"/>
	<rect x="1255.06" y="450.33" width="522.50" height="1499.05" style="fill:none;stroke:#D7D29E;stroke-width:8.64"/>
	<rect x="1781.88" y="230.55" width="531.14" height="1723.15" style="fill:#FF7F00;fill-opacity:0.40"/>
	<rect x="1786.20" y="234.87" width="522.50" height="1714.51" style="fill:none;stroke:#D7D29E;stroke-width:8.64"/>
	<rect x="2313.01" y="661.34" width="531.01" height="1292.36" style="fill:#FF7F00;fill-opacity:0.40"/>
	<rect x="2317.33" y="665.66" width="522.37" height="1283.72" style="fill:none;stroke:#D7D29E;stroke-width:8.64"/>
	<rect x="2844.02" y="1092.13" width="531.13" height="861.57" style="fill:#FF7F00;fill-opacity:0.40"/>
	<rect x="2848.34" y="1096.45" width="522.50" height="852.93" style="fill:none;stroke:#D7D29E;stroke-width:8.64"/>
	<path d=" M719.61 1532.20 L728.52 1523.91 L737.43 1515.37 L746.21 1506.83 L755.12 1498.16 L764.03 1489.25 L772.94 1480.34 L781.85 1471.43 L790.64 1462.28 L799.55 1452.99 L808.46 1443.71 L817.37 1434.31 L826.16 1424.78 L835.07 1415.13 L843.98 1405.35 L852.89 1395.57 L861.67 1385.55 L870.58 1375.52 L879.49 1365.38 L888.40 1355.10 L897.31 1344.83 L906.10 1334.44 L915.01 1323.92 L923.92 1313.28 L932.83 1302.51 L941.61 1291.74 L950.52 1280.85 L959.43 1269.96 L968.34 1258.82 L977.13 1247.69 L986.04 1236.55 L994.95 1225.16 L1003.86 1213.78 L1012.65 1202.39 L1021.56 1190.88 L1030.47 1179.25 L1039.38 1167.62 L1048.29 1155.86 L1057.07 1143.98 L1065.98 1132.10 L1074.89 1120.22 L1083.80 1108.22 L1092.59 1096.21 L1101.50 1084.08 L1110.41 1071.96 L1119.32 1059.70 L1128.11 1047.45 L1137.02 1035.20 L1145.93 1022.83 L1154.84 1010.45 L1163.74 998.07 L1172.53 985.58 L1181.44 973.20 L1190.35 960.70 L1199.26 948.08 L1208.05 935.58 L1216.96 922.96 L1225.87 910.46 L1234.78 897.83 L1243.56 885.21 L1252.47 872.71 L1261.38 860.09 L1270.29 847.47 L1279.20 834.84 L1287.99 822.22 L1296.90 809.72 L1305.81 797.10 L1314.72 784.60 L1323.51 772.10 L1332.42 759.60 L1341.33 747.23 L1350.24 734.73 L1359.02 722.35 L1367.93 709.98 L1376.84 697.72 L1385.75 685.47 L1394.66 673.34 L1403.45 661.22 L1412.36 649.09 L1421.27 637.08 L1430.18 625.20 L1438.97 613.32 L1447.88 601.44 L1456.79 589.81 L1465.70 578.18 L1474.48 566.67 L1483.39 555.16 L1492.30 543.77 L1501.21 532.51 L1510.00 521.38 L1518.91 510.36 L1527.82 499.47 L1536.73 488.58 L1545.64 477.94 L1554.42 467.29 L1563.33 456.90 L1572.24 446.63 L1581.15 436.36 L1589.94 426.33 L1598.85 416.43 L1607.76 406.66 L1616.67 397.00 L1625.46 387.60 L1634.37 378.32 L1643.28 369.16 L1652.19 360.12 L1661.10 351.34 L1669.88 342.67 L1678.79 334.14 L1687.70 325.84 L1696.61 317.68 L1705.40 309.76 L1714.31 301.96 L1723.22 294.41 L1732.13 286.99 L1740.92 279.81 L1749.83 272.75 L1758.74 265.95 L1767.65 259.39 L1776.56 252.95 L1785.34 246.77 L1794.25 240.83 L1803.16 235.01 L1812.07 229.44 L1820.86 224.12 L1829.77 219.04 L1838.68 214.09 L1847.59 209.39 L1856.37 204.94 L1865.28 200.73 L1874.19 196.64 L1883.10 192.81 L1891.89 189.34 L1900.80 186.00 L1909.71 182.91 L1918.62 180.06 L1927.53 177.34 L1936.32 174.99 L1945.23 172.88 L1954.14 170.90 L1963.05 169.30 L1971.83 167.81 L1980.74 166.57 L1989.65 165.71 L1998.56 164.96 L2007.35 164.47 L2016.26 164.22 L2025.17 164.22 L2034.08 164.47 L2042.99 164.96 L2051.78 165.71 L2060.69 166.70 L2069.59 167.81 L2078.51 169.30 L2087.29 171.03 L2096.20 172.88 L2105.11 175.11 L2114.02 177.46 L2122.81 180.06 L2131.72 183.03 L2140.63 186.13 L2149.54 189.47 L2158.45 192.93 L2167.23 196.77 L2176.14 200.85 L2185.05 205.06 L2193.96 209.52 L2202.75 214.22 L2211.66 219.17 L2220.57 224.24 L2229.48 229.69 L2238.27 235.26 L2247.18 241.07 L2256.09 247.01 L2265.00 253.20 L2273.91 259.64 L2282.69 266.19 L2291.60 273.00 L2300.51 280.06 L2309.42 287.23 L2318.21 294.66 L2327.12 302.21 L2336.03 310.00 L2344.94 317.92 L2353.73 326.09 L2362.64 334.38 L2371.55 342.92 L2380.46 351.58 L2389.24 360.37 L2398.15 369.41 L2407.06 378.56 L2415.97 387.84 L2424.88 397.37 L2433.67 407.03 L2442.58 416.80 L2451.49 426.70 L2460.40 436.73 L2469.18 446.88 L2478.09 457.27 L2487.00 467.67 L2495.91 478.31 L2504.70 488.95 L2513.61 499.84 L2522.52 510.73 L2531.43 521.75 L2540.34 532.88 L2549.13 544.15 L2558.04 555.53 L2566.95 567.04 L2575.86 578.55 L2584.64 590.18 L2593.55 601.94 L2602.46 613.70 L2611.37 625.58 L2620.16 637.46 L2629.07 649.46 L2637.98 661.59 L2646.89 673.72 L2655.80 685.97 L2664.59 698.10 L2673.50 710.47 L2682.41 722.85 L2691.32 735.22 L2700.10 747.60 L2709.01 760.10 L2717.92 772.47 L2726.83 785.09 L2735.62 797.59 L2744.53 810.09 L2753.44 822.72 L2762.35 835.34 L2771.13 847.84 L2780.04 860.46 L2788.95 873.08 L2797.86 885.71 L2806.77 898.33 L2815.56 910.83 L2824.47 923.45 L2833.38 935.95 L2842.29 948.57 L2851.08 961.07 L2859.99 973.57 L2868.90 986.07 L2877.81 998.45 L2886.59 1010.95 L2895.50 1023.20 L2904.41 1035.57 L2913.32 1047.95 L2922.23 1060.08 L2931.02 1072.33 L2939.93 1084.46 L2948.84 1096.58 L2957.75 1108.59 L2966.54 1120.59 L2975.45 1132.60 L2984.36 1144.48 L2993.27 1156.23 L3002.05 1167.99 L3010.96 1179.62 L3019.87 1191.25 L3028.78 1202.76 L3037.69 1214.15 L3046.48 1225.53 L3055.39 1236.92 L3064.30 1248.06 L3073.21 1259.20 L3081.99 1270.33 L3090.90 1281.22 L3099.81 1292.11 L3108.72 1302.88 L3117.51 1313.65 L3126.42 1324.29 L3135.33 1334.81 L3144.24 1345.20 L3153.15 1355.48 L3161.94 1365.75 L3170.85 1375.90 L3179.76 1385.92 L3188.67 1395.82 L3197.45 1405.72 L3206.36 1415.37 L3215.27 1425.03 L3224.18 1434.55 L3232.97 1444.08 L3241.88 1453.37 L3250.79 1462.52 L3259.70 1471.68 L3268.49 1480.72 L3277.40 1489.63 L3286.31 1498.41 L3295.22 1507.07 L3304.13 1515.74 L3312.91 1524.15 L3321.82 1532.57 L3330.73 1540.74 L3339.64 1548.90 L3348.43 1556.95 L3357.34 1564.99 L3366.25 1572.79 L3375.16 1580.46" stroke-linejoin="round" style="fill:none;stroke:#2D6D66;stroke-width:8.64"/>
	<rect x="719.73" y="876.80" width="531.01" height="1076.91" style="fill:#0080FF;fill-opacity:0.50"/>
	<rect x="724.05" y="881.12" width="522.37" height="1068.27" style="fill:none;stroke:#D7D29E;stroke-width:8.64"/>
	<rect x="1250.74" y="446.01" width="531.14" height="1507.69" style="fill:#0080FF;fill-opacity:0.50"/>
	<rect x="1255.06" y="450.33" width="522.50" height="1499.05" style="fill:none;stroke:#D7D29E;stroke-width:8.64"/>
	<rect x="1781.88" y="230.55" width="531.14" height="1723.15" style="fill:#0080FF;fill-opacity:0.50"/>
	<rect x="1786.20" y="234.87" width="522.50" height="1714.51" style="fill:none;stroke:#D7D29E;stroke-width:8.64"/>
	<rect x="2313.01" y="661.34" width="531.01" height="1292.36" style="fill:#0080FF;fill-opacity:0.50"/>
	<rect x="2317.33" y="665.66" width="522.37" height="1283.72" style="fill:none;stroke:#D7D29E;stroke-width:8.64"/>
	<rect x="2844.02" y="1092.13" width="531.13" height="861.57" style="fill:#0080FF;fill-opacity:0.50"/>
	<rect x="2848.34" y="1096.45" width="522.50" height="852.93" style="fill:none;stroke:#D7D29E;stroke-width:8.64"/>
	<line x1="390.80" y1="1953.70" x2="390.80" y2="100.86" style="stroke:#000000;stroke-width:5.76"/>
	<line x1="390.80" y1="1953.70" x2="350.83" y2="1953.70" style="stroke:#000000;stroke-width:5.76"/>
	<text x="300.72" y="1953.70" style="font-family:'Helvetica';font-size:99.99px;fill:#000000" transform="rotate(-90 300.72,1953.70)" text-anchor="middle">0</text>
	<line x1="390.80" y1="1524.03" x2="350.83" y2="1524.03" style="stroke:#000000;stroke-width:5.76"/>
	<text x="300.72" y="1524.03" style="font-family:'Helvetica';font-size:99.99px;fill:#000000" transform="rotate(-90 300.72,1524.03)" text-anchor="middle">.005</text>
	<line x1="390.80" y1="1094.36" x2="350.83" y2="1094.36" style="stroke:#000000;stroke-width:5.76"/>
	<text x="300.72" y="1094.36" style="font-family:'Helvetica';font-size:99.99px;fill:#000000" transform="rotate(-90 300.72,1094.36)" text-anchor="middle">.01</text>
	<line x1="390.80" y1="664.68" x2="350.83" y2="664.68" style="stroke:#000000;stroke-width:5.76"/>
	<text x="300.72" y="664.68" style="font-family:'Helvetica';font-size:99.99px;fill:#000000" transform="rotate(-90 300.72,664.68)" text-anchor="middle">.015</text>
	<line x1="390.80" y1="235.01" x2="350.83" y2="235.01" style="stroke:#000000;stroke-width:5.76"/>
	<text x="300.72" y="235.01" style="font-family:'Helvetica';font-size:99.99px;fill:#000000" transform="rotate(-90 300.72,235.01)" text-anchor="middle">.02</text>
	<text x="190.71" y="1027.28" style="font-family:'Helvetica';font-size:99.99px;fill:#000000" transform="rotate(-90 190.71,1027.28)" text-anchor="middle">Density</text>
	<line x1="390.80" y1="1953.70" x2="3859.02" y2="1953.70" style="stroke:#000000;stroke-width:5.76"/>
	<line x1="601.05" y1="1953.70" x2="601.05" y2="1993.67" style="stroke:#000000;stroke-width:5.76"/>
	<text x="601.05" y="2083.66" style="font-family:'Helvetica';font-size:99.99px;fill:#000000" text-anchor="middle">20</text>
	<line x1="1399.74" y1="1953.70" x2="1399.74" y2="1993.67" style="stroke:#000000;stroke-width:5.76"/>
	<text x="1399.74" y="2083.66" style="font-family:'Helvetica';font-size:99.99px;fill:#000000" text-anchor="middle">40</text>
	<line x1="2198.42" y1="1953.70" x2="2198.42" y2="1993.67" style="stroke:#000000;stroke-width:5.76"/>
	<text x="2198.42" y="2083.66" style="font-family:'Helvetica';font-size:99.99px;fill:#000000" text-anchor="middle">60</text>
	<line x1="2997.10" y1="1953.70" x2="2997.10" y2="1993.67" style="stroke:#000000;stroke-width:5.76"/>
	<text x="2997.10" y="2083.66" style="font-family:'Helvetica';font-size:99.99px;fill:#000000" text-anchor="middle">80</text>
	<line x1="3795.66" y1="1953.70" x2="3795.66" y2="1993.67" style="stroke:#000000;stroke-width:5.76"/>
	<text x="3795.66" y="2083.66" style="font-family:'Helvetica';font-size:99.99px;fill:#000000" text-anchor="middle">100</text>
	<text x="2124.91" y="2193.67" style="font-family:'Helvetica';font-size:99.99px;fill:#000000" text-anchor="middle">age</text>
	<rect x="1243.32" y="2278.31" width="1763.19" height="466.30" style="fill:#FFFFFF"/>
	<rect x="1246.20" y="2281.19" width="1757.43" height="460.54" style="fill:none;stroke:#000000;stroke-width:5.76"/>
	<rect x="1286.51" y="2321.50" width="374.34" height="99.99" style="fill:#FF7F00;fill-opacity:0.40"/>
	<rect x="1290.82" y="2325.82" width="365.70" height="91.35" style="fill:none;stroke:#D7D29E;stroke-width:8.64"/>
	<line x1="1286.51" y1="2511.46" x2="1660.85" y2="2511.46" style="stroke:#2D6D66;stroke-width:8.64"/>
	<rect x="1286.51" y="2601.43" width="374.34" height="99.99" style="fill:#0080FF;fill-opacity:0.50"/>
	<rect x="1290.82" y="2605.75" width="365.70" height="91.35" style="fill:none;stroke:#D7D29E;stroke-width:8.64"/>
	<text x="1720.87" y="2406.52" style="font-family:'Helvetica';font-size:99.99px;fill:#000000">Sampled from Normal</text>
	<text x="1720.87" y="2546.49" style="font-family:'Helvetica';font-size:99.99px;fill:#000000">Theoretical Normal</text>
	<text x="1720.87" y="2686.46" style="font-family:'Helvetica';font-size:99.99px;fill:#000000">Sampled from t-distribution</text>
</svg>
